name rise30.3154peak39.0474fall46.5389.mot
datacolumns 19
datarows 15
range 7.22664400000000 7.24997400000000
endheader
time	ground_force1_vx	ground_force1_vy	ground_force1_vz	ground_force1_px	ground_force1_py	ground_force1_pz	ground_force2_vx	ground_force2_vy	ground_force2_vz	ground_force2_px	ground_force2_py	ground_force2_pz	ground_torque1_x	ground_torque1_y	ground_torque1_z	ground_torque2_x	ground_torque2_y	ground_torque2_z	
7.22664400000000	51.04584700000000	737.40141800000004	56.78951800000000	0.32229300000000	0.00000000000000	0.12863100000000	0.00000000000000	0.00000000000000	0.00000000000000	0.00000000000000	0.00000000000000	0.00000000000000	0.00000000000000	22.12545900000000	0.00000000000000	0.00000000000000	0.00000000000000	0.00000000000000	
7.22831200000000	50.32302500000000	739.53686800000003	56.82934000000000	0.32130700000000	0.00000000000000	0.12870600000000	0.00000000000000	0.00000000000000	0.00000000000000	0.00000000000000	0.00000000000000	0.00000000000000	0.00000000000000	22.19939300000000	0.00000000000000	0.00000000000000	0.00000000000000	0.00000000000000	
7.22997400000000	49.61407200000000	741.60848099999998	56.86979900000000	0.32037100000000	0.00000000000000	0.12877900000000	0.00000000000000	0.00000000000000	0.00000000000000	0.00000000000000	0.00000000000000	0.00000000000000	0.00000000000000	22.27522000000000	0.00000000000000	0.00000000000000	0.00000000000000	0.00000000000000	
7.23164500000000	48.91953500000000	743.61449600000003	56.91085200000000	0.31948500000000	0.00000000000000	0.12885000000000	0.00000000000000	0.00000000000000	0.00000000000000	0.00000000000000	0.00000000000000	0.00000000000000	0.00000000000000	22.35277500000000	0.00000000000000	0.00000000000000	0.00000000000000	0.00000000000000	
7.23331300000000	48.23985300000000	745.55314299999998	56.95238000000000	0.31864600000000	0.00000000000000	0.12892100000000	0.00000000000000	0.00000000000000	0.00000000000000	0.00000000000000	0.00000000000000	0.00000000000000	0.00000000000000	22.43184900000000	0.00000000000000	0.00000000000000	0.00000000000000	0.00000000000000	
7.23497400000000	47.57535700000000	747.42265699999996	56.99419400000000	0.31785400000000	0.00000000000000	0.12898900000000	0.00000000000000	0.00000000000000	0.00000000000000	0.00000000000000	0.00000000000000	0.00000000000000	0.00000000000000	22.51219300000000	0.00000000000000	0.00000000000000	0.00000000000000	0.00000000000000	
7.23665900000000	46.92627400000000	749.22129700000005	57.03603700000000	0.31710700000000	0.00000000000000	0.12905700000000	0.00000000000000	0.00000000000000	0.00000000000000	0.00000000000000	0.00000000000000	0.00000000000000	0.00000000000000	22.59351700000000	0.00000000000000	0.00000000000000	0.00000000000000	0.00000000000000	
7.23831600000000	46.29273500000000	750.94736000000000	57.07759000000000	0.31640300000000	0.00000000000000	0.12912300000000	0.00000000000000	0.00000000000000	0.00000000000000	0.00000000000000	0.00000000000000	0.00000000000000	0.00000000000000	22.67549900000000	0.00000000000000	0.00000000000000	0.00000000000000	0.00000000000000	
7.23997700000000	45.67477400000000	752.59919700000000	57.11847900000000	0.31573900000000	0.00000000000000	0.12918700000000	0.00000000000000	0.00000000000000	0.00000000000000	0.00000000000000	0.00000000000000	0.00000000000000	0.00000000000000	22.75778700000000	0.00000000000000	0.00000000000000	0.00000000000000	0.00000000000000	
7.24166000000000	45.07233900000000	754.17523100000005	57.15827900000000	0.31511400000000	0.00000000000000	0.12925000000000	0.00000000000000	0.00000000000000	0.00000000000000	0.00000000000000	0.00000000000000	0.00000000000000	0.00000000000000	22.83999800000000	0.00000000000000	0.00000000000000	0.00000000000000	0.00000000000000	
7.24330900000000	44.48529000000000	755.67396900000006	57.19652100000000	0.31452600000000	0.00000000000000	0.12931200000000	0.00000000000000	0.00000000000000	0.00000000000000	0.00000000000000	0.00000000000000	0.00000000000000	0.00000000000000	22.92172800000000	0.00000000000000	0.00000000000000	0.00000000000000	0.00000000000000	
7.24497600000000	43.91341200000000	757.09401300000002	57.23269700000000	0.31397100000000	0.00000000000000	0.12937300000000	0.00000000000000	0.00000000000000	0.00000000000000	0.00000000000000	0.00000000000000	0.00000000000000	0.00000000000000	23.00255100000000	0.00000000000000	0.00000000000000	0.00000000000000	0.00000000000000	
7.24664900000000	43.35641400000000	758.43407900000000	57.26626800000000	0.31344800000000	0.00000000000000	0.12943200000000	0.00000000000000	0.00000000000000	0.00000000000000	0.00000000000000	0.00000000000000	0.00000000000000	0.00000000000000	23.08202600000000	0.00000000000000	0.00000000000000	0.00000000000000	0.00000000000000	
7.24830600000000	42.81394100000000	759.69300199999998	57.29666800000000	0.31295200000000	0.00000000000000	0.12949000000000	0.00000000000000	0.00000000000000	0.00000000000000	0.00000000000000	0.00000000000000	0.00000000000000	0.00000000000000	23.15969500000000	0.00000000000000	0.00000000000000	0.00000000000000	0.00000000000000	
7.24997400000000	42.28557500000000	760.86975099999995	57.32331100000000	0.31248200000000	0.00000000000000	0.12954600000000	0.00000000000000	0.00000000000000	0.00000000000000	0.00000000000000	0.00000000000000	0.00000000000000	0.00000000000000	23.23509600000000	0.00000000000000	0.00000000000000	0.00000000000000	0.00000000000000	
